<svg width="246" height="338" fill="none" xmlns="http://www.w3.org/2000/svg"><path fill-rule="evenodd" clip-rule="evenodd" d="M94.467 16.546h72.091c.91 0 1.679.884 1.794 2.065l8.975 92.181c.137 1.413-.705 2.663-1.794 2.663h-72.091c-.91 0-1.679-.885-1.794-2.066l-8.975-92.181c-.137-1.413.705-2.662 1.794-2.662ZM166.558 0c7.283 0 13.43 7.078 14.349 16.522l8.975 92.182c1.1 11.299-5.636 21.296-14.349 21.296h-72.091c-7.283 0-13.43-7.078-14.35-16.522l-8.974-92.182C79.018 9.996 85.754 0 94.468 0h72.09Z" fill="#38338f"/><path d="M246 338h-78l20.86-261h38.093L246 338Z" fill="#928fc7"/><path d="M209.028 315 169 338h77l-36.972-23Z" fill="#38338f"/><path d="M21.623 77H191l-21.623 261H0L21.623 77Z" fill="#cfcdec"/><ellipse cx="95.441" cy="201.826" rx="44.029" ry="49.421" transform="rotate(16.238 95.441 201.826)" fill="#edecff"/><path fill-rule="evenodd" clip-rule="evenodd" d="M153.796 16.546h-70.78c-.894 0-1.648.884-1.761 2.065l-8.812 92.181c-.135 1.413.692 2.663 1.761 2.663h70.78c.894 0 1.649-.885 1.761-2.066l8.812-92.181c.135-1.413-.692-2.662-1.761-2.662ZM83.016 0c-7.15 0-13.186 7.078-14.089 16.522l-8.811 92.182C59.036 120.003 65.649 130 74.204 130h70.78c7.151 0 13.186-7.078 14.089-16.522l8.811-92.182C168.964 9.996 162.351 0 153.796 0h-70.78Z" fill="#cfcdec"/><path fill="#38338f" d="M208 77h2v233h-2z"/></svg>