<svg width="1500" height="1500" viewBox="0 0 1500 1500" fill="none" xmlns="http://www.w3.org/2000/svg">
<g clip-path="url(#clip0_11_2)">
<path d="M1279 666.608C1401.05 666.608 1500 572.754 1500 456.98C1500 341.207 1401.05 247.353 1279 247.353C1156.94 247.353 1058 341.207 1058 456.98C1058 572.754 1156.94 666.608 1279 666.608Z" fill="white"/>
<path d="M1110.67 1081.27H1481L1419 619.366L1357.99 532.433L1196.32 582.625L1110.67 1081.27Z" fill="white"/>
<path d="M1119 417.611C1146.33 314.929 1249.67 250.958 1358 264.738C1348.92 260.992 1339.56 257.923 1330.01 255.555C1212 225.043 1092 290.983 1062 402.85C1032 514.717 1103.67 630.193 1221.67 661.039C1231.2 663.528 1240.89 665.39 1250.67 666.615C1149.67 625.926 1091.67 520.292 1119 417.611Z" fill="#D9E7EA"/>
<path d="M1250.66 666.278L1198.33 1081.27H1110.67L1180.67 644.954L1250.66 666.278Z" fill="#D9E7EA"/>
<path d="M1180.67 644.954H1255.33L1249 678.416H1175.33L1180.67 644.954Z" fill="#D9E7EA"/>
<path d="M1255.34 644.957C1255.34 644.957 1164.34 626.59 1131.33 554.741L1102.67 580.001L1206.67 656.438L1255.34 644.957Z" fill="#D9E7EA"/>
<path d="M314.333 615.759L1166 613.134V688.247L1140.67 688.574L1146.33 821.765L1087.67 822.092L1090 781.74L1059.33 782.068V822.097H1021.33L1020.99 777.154H993.001L993.334 837.197L957.668 837.524L957.001 676.777L314.668 678.746L314.333 615.759Z" fill="#A0CFEF"/>
<path d="M247.998 502.578C217.374 502.675 187.468 511.707 162.06 528.532C136.653 545.357 116.885 569.219 105.257 597.1C93.6292 624.982 90.6633 655.631 96.7346 685.171C102.806 714.712 117.642 741.817 139.366 763.06C161.09 784.302 188.726 798.727 218.78 804.511C248.835 810.296 279.957 807.179 308.211 795.555C336.466 783.932 360.584 764.323 377.515 739.21C394.446 714.096 403.43 684.606 403.331 654.467C403.291 634.449 399.239 614.635 391.406 596.161C383.573 577.686 372.114 560.914 357.685 546.805C343.256 532.695 326.14 521.526 307.318 513.937C288.496 506.348 268.338 502.488 247.998 502.578ZM191.998 694.162C184.153 694.162 176.484 691.872 169.961 687.583C163.438 683.293 158.354 677.196 155.352 670.063C152.35 662.93 151.564 655.081 153.095 647.508C154.625 639.936 158.403 632.98 163.95 627.52C169.498 622.061 176.565 618.343 184.26 616.836C191.954 615.33 199.93 616.103 207.178 619.058C214.426 622.013 220.621 627.016 224.979 633.436C229.338 639.856 231.664 647.403 231.664 655.124C231.679 660.255 230.664 665.338 228.676 670.081C226.688 674.824 223.767 679.134 220.081 682.762C216.394 686.39 212.015 689.265 207.196 691.221C202.376 693.178 197.212 694.177 191.998 694.162V694.162Z" fill="#A0CFEF"/>
<path d="M300.332 615.757L1152 613.461V688.259L1126.67 688.586L1132 821.777L1073.33 822.104L1076 781.752L1045.33 782.08V822.109H1007.33L1006.99 777.165H979L979.333 837.527H943.665L942.997 676.78L300.665 678.748L300.332 615.757Z" fill="white"/>
<path d="M229.331 502.578C198.708 502.675 168.801 511.707 143.394 528.532C117.986 545.357 98.2184 569.219 86.5905 597.1C74.9627 624.982 71.9969 655.631 78.0682 685.171C84.1394 714.712 98.9751 741.817 120.699 763.06C142.423 784.302 170.06 798.727 200.114 804.511C230.168 810.296 261.291 807.179 289.545 795.555C317.8 783.932 341.917 764.323 358.848 739.21C375.779 714.096 384.763 684.606 384.664 654.467C384.624 634.449 380.572 614.635 372.74 596.161C364.907 577.686 353.448 560.914 339.019 546.805C324.59 532.695 307.474 521.526 288.652 513.937C269.83 506.348 249.671 502.488 229.331 502.578V502.578ZM173.332 694.162C165.487 694.162 157.818 691.872 151.295 687.583C144.772 683.293 139.688 677.196 136.685 670.063C133.683 662.93 132.898 655.081 134.428 647.508C135.959 639.936 139.736 632.98 145.284 627.52C150.831 622.061 157.899 618.343 165.593 616.836C173.288 615.33 181.263 616.103 188.511 619.058C195.759 622.013 201.954 627.016 206.313 633.436C210.671 639.856 212.998 647.403 212.998 655.124C213.013 660.255 211.998 665.338 210.01 670.081C208.022 674.824 205.101 679.134 201.414 682.762C197.728 686.39 193.349 689.265 188.529 691.221C183.71 693.178 178.545 694.177 173.332 694.162V694.162Z" fill="white"/>
<path d="M229.331 502.578C198.708 502.675 168.801 511.707 143.394 528.532C117.986 545.357 98.2184 569.219 86.5905 597.1C74.9627 624.982 71.9969 655.631 78.0682 685.171C84.1394 714.712 98.9751 741.817 120.699 763.06C142.423 784.302 170.06 798.727 200.114 804.511C230.168 810.296 261.291 807.179 289.545 795.555C317.8 783.932 341.917 764.323 358.848 739.21C375.779 714.096 384.763 684.606 384.664 654.467C384.624 634.449 380.572 614.635 372.74 596.161C364.907 577.686 353.448 560.914 339.019 546.805C324.59 532.695 307.474 521.526 288.652 513.937C269.83 506.348 249.671 502.488 229.331 502.578V502.578ZM173.332 694.162C165.487 694.162 157.818 691.872 151.295 687.583C144.772 683.293 139.688 677.196 136.685 670.063C133.683 662.93 132.898 655.081 134.428 647.508C135.959 639.936 139.736 632.98 145.284 627.52C150.831 622.061 157.899 618.343 165.593 616.836C173.288 615.33 181.263 616.103 188.511 619.058C195.759 622.013 201.954 627.016 206.313 633.436C210.671 639.856 212.998 647.403 212.998 655.124C213.013 660.255 211.998 665.338 210.01 670.081C208.022 674.824 205.101 679.134 201.414 682.762C197.728 686.39 193.349 689.265 188.529 691.221C183.71 693.178 178.545 694.177 173.332 694.162V694.162Z" fill="white"/>
<path d="M1152 613.461C1152 613.461 1116.67 642.659 1152.33 688.574C1152 688.259 1183.67 644.307 1152 613.461Z" fill="#A0CFEF"/>
<g opacity="0.11">
<path opacity="0.11" d="M1100.33 823.088C1100.38 817.842 1101.67 812.678 1104.1 808.008C1106.53 803.338 1110.03 799.291 1114.33 796.189C1117.3 794.296 1120.42 792.65 1123.66 791.268C1127.03 789.58 1130.62 788.365 1134.33 787.658C1138.12 786.992 1142.03 787.691 1145.34 789.626L1146.34 821.777L1100.33 823.088Z" fill="#282F56"/>
</g>
<g opacity="0.11">
<path opacity="0.11" d="M1163.33 685.961C1158.66 680.712 1153.67 675.464 1151.33 669.231C1149.93 664.748 1149.04 660.127 1148.66 655.451C1147.66 646.268 1146.66 636.753 1148.66 627.568C1149.09 623.288 1151.11 619.315 1154.33 616.414C1156.01 615.074 1158.13 614.399 1160.29 614.52C1162.45 614.642 1164.48 615.551 1166 617.071L1163.33 685.961Z" fill="#282F56"/>
</g>
<g opacity="0.11">
<path opacity="0.11" d="M218 646.263C220.333 645.936 223.001 651.185 224.001 660.043C224.582 665.295 224.357 670.603 223.333 675.788C221.967 683.344 217.958 690.192 212 695.144C202.294 702.92 190.182 707.202 177.667 707.282C168.336 706.955 163.001 704.329 163.333 702.033C163.333 699.738 168.666 698.096 175.999 695.473C180.235 694.022 184.357 692.268 188.333 690.225C192.976 687.998 197.339 685.246 201.334 682.024C204.651 679.2 207.176 675.585 208.667 671.527C210.111 667.326 211.335 663.055 212.335 658.731C214 651.517 215.665 646.595 218 646.263V646.263Z" fill="#282F56"/>
</g>
<g opacity="0.12">
<path opacity="0.12" d="M657.331 625.272C663.903 623.687 670.76 623.632 677.356 625.113C683.953 626.594 690.108 629.568 695.332 633.8C707.998 644.297 714.331 661.684 728.665 669.558C742.331 676.775 758.997 673.495 773.331 667.91C787.664 662.325 801.663 654.46 816.997 653.146C832.331 651.832 849.997 659.706 852.997 674.47C785.664 678.407 713.991 677.095 646.663 681.03" fill="#282F56"/>
</g>
<g opacity="0.11">
<path opacity="0.11" d="M78.6665 618.712C97.0004 619.369 104.334 631.507 113.999 646.925C123.665 662.344 127 681.044 126.333 699.085C125.665 709.917 124 721.066 125.333 731.89C128.666 755.84 150.667 776.179 174.999 777.818C182.831 778.155 190.674 777.494 198.334 775.849C208.334 774.201 218 772.897 228.001 771.255C242.002 769.287 258.001 767.318 267.334 782.737C269.883 787.416 271.47 792.544 272.002 797.828C272.67 807.34 275.335 798.155 272.67 807.34L221.336 806.029C183.965 805.067 148.253 790.641 120.973 765.486C93.6921 740.332 76.7407 706.199 73.3335 669.561L78.6665 618.712Z" fill="#282F56"/>
</g>
<path d="M218.333 807.999C218.707 807.409 219.272 806.959 219.937 806.721C220.602 806.484 221.328 806.472 222.001 806.688C223.35 807.083 224.6 807.754 225.668 808.656C231.245 812.15 237.769 813.895 244.376 813.661C250.983 813.427 257.361 811.224 262.669 807.345C252.668 803.408 242.332 799.81 232.001 796.848C233.89 796.562 235.697 795.888 237.305 794.871C238.912 793.854 240.284 792.515 241.332 790.942C241.665 790.615 242 789.958 241.665 789.631C241.533 789.507 241.375 789.413 241.202 789.356C241.029 789.299 240.846 789.281 240.665 789.304C238.01 789.185 235.37 789.753 233.009 790.952C228.008 792.92 223.008 795.216 218.007 797.185C217.407 797.437 216.843 797.768 216.333 798.169C216.035 798.896 215.921 799.684 216 800.465C216.371 802.634 216.594 804.826 216.668 807.025" fill="#F7D3A9"/>
<path d="M76.6662 1192.15L73.3334 1211.51L83.6668 1210.85L88.3347 1191.5L76.6662 1192.15Z" fill="#DEE3FF"/>
<path d="M156.665 1186.9L155.333 1206.6L165.333 1204.63L168.334 1184.95L156.665 1186.9Z" fill="#DEE3FF"/>
<path d="M93.3326 643.972L106.666 679.075C107.383 680.927 107.719 682.9 107.654 684.88C107.589 686.86 107.124 688.807 106.286 690.609C105.448 692.41 104.254 694.03 102.774 695.372C101.295 696.715 99.5578 697.755 97.6655 698.431L92.9977 700.079L94.9979 725.667L58.6649 728.292L53.3319 655.793L93.3326 643.972Z" fill="#F7D3A9"/>
<path d="M92 623.303C92 623.303 84.6669 618.709 75.6662 630.52C66.6655 642.331 45.6662 634.457 39.0006 649.219C32.0001 663.982 37.3259 681.369 46.6568 694.491L53.3223 704.661L71.9841 703.35C71.9841 703.35 79.9847 685.636 76.6519 680.714C76.6519 680.714 55.9852 677.762 62.3183 666.935C68.6513 656.108 78.6521 671.529 78.6521 671.529L83.985 670.872L77.652 650.532C77.652 650.532 95.986 646.923 98.3187 635.769C100.001 623.96 92 623.303 92 623.303V623.303Z" fill="#343B73"/>
<path d="M28.3323 920.848L75.3313 1029.44C79.6521 1039.47 81.3704 1050.41 80.3316 1061.26L68.3307 1197.73L93.3302 1196.08C93.3302 1196.08 127.33 1073.71 127.663 1042.56C127.663 1027.79 109.997 964.146 109.997 964.146C109.997 964.146 139.664 1012.37 139.997 1038.94C140.329 1065.52 150.662 1192.15 150.662 1192.15L170.662 1190.83C170.662 1190.83 203.662 1054.03 171.994 977.268C144.327 910.017 129.993 869.661 129.993 869.661L28.3323 920.848Z" fill="#343B73"/>
<path d="M55.9996 713.192C40.5305 719.216 27.1989 729.577 17.6587 742.99C8.11849 756.403 2.78944 772.278 2.33269 788.644C-2.35304e-05 847.039 28.3323 921.178 28.3323 921.178L131.666 881.811L128.666 849.66L110.332 739.434C109.817 736.658 108.556 734.069 106.68 731.934C104.805 729.8 102.383 728.198 99.6657 727.296L55.9996 713.192Z" fill="#D8F6FF"/>
<path d="M118.667 877.876C118.398 877.493 118.28 877.027 118.335 876.564C118.002 875.253 118.002 873.939 117.667 872.3C117 868.036 115.992 862.787 114.999 856.882C112.667 842.775 109.999 825.389 106.999 806.033C103.999 786.678 101.333 769.301 99.3427 755.185C98.6752 749.279 97.6679 744.031 97.01 739.767C96.6774 738.118 96.6774 736.814 96.3424 735.502V733.854C96.6114 734.237 96.7297 734.703 96.675 735.166C97.0075 736.477 97.0075 737.791 97.3425 739.43C98.01 743.694 99.0173 748.943 100.01 754.848C102.343 768.627 105.011 786.341 108.011 805.697C111.011 825.052 113.676 842.429 115.667 856.545C116.334 862.451 117.342 867.699 118 871.963C118.332 873.612 118.332 874.916 118.667 876.228V877.876Z" fill="#A0CED8"/>
<path d="M55.9996 713.192L94.9979 723.689L93.6652 734.186L46.9989 717.129L55.9996 713.192Z" fill="#A0CED8"/>
<path d="M94.6653 723.689L101.998 733.531L101.666 725.33L94.3328 717.129L94.6653 723.689Z" fill="#A0CED8"/>
<path d="M94.9979 724.016L93.6652 734.186L100.666 743.369L101.666 732.872L95.6654 724.671" fill="#CC4444"/>
<path d="M99.6657 742.06C99.6657 742.06 110.332 811.287 79.6665 824.075C49.0014 836.863 37.6656 839.166 37.6656 839.166L27.3323 858.521L51.9993 862.131C51.9993 862.131 123.665 845.401 120.332 800.455C117 755.837 100.998 738.123 100.998 738.123L99.6657 742.06Z" fill="#CC4444"/>
<path d="M31.6652 777.82L126.333 822.109L218.665 815.549L216.665 790.288L140.999 789.304L53.6765 733.531" fill="#D8F6FF"/>
<path d="M32.0001 781.755C32.0001 781.755 33.3327 782.412 35.6678 783.403C38.003 784.394 41.3358 786.028 45.6687 787.997C54.0019 791.606 66.0052 796.198 79.3364 801.119C92.6676 806.04 104.671 810.962 113.004 814.899C117.338 816.867 120.671 818.508 123.005 819.82C125.338 821.131 126.338 821.788 126.338 821.788C126.338 821.788 125.005 821.131 122.67 820.14C120.335 819.149 117.004 817.515 112.669 815.546C104.336 811.937 92.3326 807.345 79.0014 802.424C65.6702 797.503 53.6669 792.581 45.3337 788.644C41 786.676 37.6664 785.035 35.3329 783.723C33.3328 782.739 32.0001 782.082 32.0001 781.755Z" fill="#A0CED8"/>
<path d="M136.666 787.333C135.639 786.958 134.637 786.52 133.666 786.021C131.666 785.037 128.998 783.396 125.665 781.427C119 777.49 110.332 771.585 100.666 764.697C90.9999 757.81 82.3318 751.902 75.9988 747.638C73.3311 745.99 70.6658 744.358 68.3426 742.717C66.6679 741.733 65.675 741.069 65.675 740.748C65.675 740.428 66.6751 741.076 68.6752 742.06C70.6754 743.044 73.343 744.685 76.6758 746.654C83.3414 750.591 92.0096 756.496 101.675 763.384C111.341 770.271 120.009 776.179 126.342 780.443C129.01 782.091 131.675 783.723 133.999 785.364C135.666 786.676 136.666 787.333 136.666 787.333Z" fill="#A0CED8"/>
<path d="M205.002 816.198C203.845 812.009 203.064 807.727 202.669 803.403C201.669 796.186 200.994 790.281 201.669 790.281C202.826 794.47 203.606 798.752 204.002 803.076C204.805 807.403 205.14 811.802 205.002 816.198Z" fill="#A0CED8"/>
<path d="M218 806.033C216.118 807.308 213.94 808.097 211.667 808.329C209.497 808.921 207.221 809.033 205.002 808.657C207.024 807.818 209.156 807.263 211.335 807.008C213.46 806.216 215.733 805.883 218 806.033V806.033Z" fill="#A0CED8"/>
<path d="M73.3335 1211.51C71.5987 1214.85 70.7939 1218.59 71.0007 1222.34L125 1218.4C125 1218.4 129.668 1207.57 83.9993 1210.53L73.3335 1211.51Z" fill="#343B73"/>
<path d="M155.333 1205.6C153.598 1208.95 152.793 1212.68 153 1216.43L210.332 1212.49C210.332 1212.49 212.007 1202.65 165.666 1204.96L155.333 1205.6Z" fill="#343B73"/>
<path d="M98.6656 1207.9C98.9981 1208.23 96.6654 1209.55 94.3327 1211.84C92 1213.8 90.3324 1215.77 89.9998 1215.45C89.6672 1215.12 90.9998 1212.82 93.6675 1210.85C95.6653 1208.56 98.333 1207.57 98.6656 1207.9V1207.9Z" fill="#222742"/>
<path d="M103.001 1208.88C103.333 1209.21 101.326 1210.53 99.0005 1212.49C96.6678 1214.14 94.6676 1215.77 94.6676 1215.45C94.3351 1215.12 96.0003 1213.15 98.3354 1211.18C100.668 1209.54 103.001 1208.55 103.001 1208.88V1208.88Z" fill="#222742"/>
<path d="M108.999 1208.88C107.634 1209.98 106.185 1210.96 104.666 1211.84C102.333 1213.48 100.666 1215.12 100.333 1214.79C100.001 1214.46 101.333 1212.49 104.001 1210.52C105.477 1209.53 107.209 1208.96 108.999 1208.88V1208.88Z" fill="#222742"/>
<path d="M89.9974 1213.15C89.244 1211.27 88.9032 1209.26 88.9974 1207.24C88.896 1206.21 89.1298 1205.18 89.6649 1204.29C89.927 1203.7 90.4024 1203.24 90.9975 1202.98C91.2169 1202.93 91.4447 1202.92 91.6667 1202.96C91.8887 1203 92.1001 1203.08 92.2878 1203.2C92.4755 1203.33 92.6354 1203.49 92.7575 1203.67C92.8797 1203.86 92.9614 1204.07 92.9977 1204.29C92.9659 1205.63 92.7412 1206.95 92.3302 1208.23L91.6627 1210.19L91.3301 1211.18C91.3064 1211.43 91.1878 1211.67 90.9975 1211.84C90.6649 1212.16 90.33 1212.49 89.9974 1212.16C87.3381 1211.34 84.9311 1209.87 82.9969 1207.9C82.6643 1207.24 82.3294 1206.25 82.9969 1205.6C83.6644 1204.96 84.3295 1204.62 84.9971 1204.95C85.5743 1205.03 86.1216 1205.25 86.588 1205.59C87.0544 1205.94 87.4247 1206.39 87.6647 1206.91C88.8136 1208.55 89.4005 1210.51 89.3395 1212.49C89.1305 1210.55 88.3157 1208.72 87.0068 1207.24C86.7965 1206.89 86.5071 1206.59 86.1605 1206.36C85.814 1206.13 85.4193 1205.99 85.0066 1205.93C84.0065 1205.93 83.674 1206.59 84.3391 1207.24C86.081 1208.82 88.1194 1210.05 90.3396 1210.85C90.007 1211.51 90.3396 1210.2 90.6722 1209.87L91.3397 1207.9C91.6603 1206.83 91.8837 1205.73 92.0072 1204.62C92.0072 1203.64 91.3396 1204.29 90.6745 1204.95C90.2576 1205.76 90.0296 1206.66 90.007 1207.57C89.8063 1209.43 89.8031 1211.29 89.9974 1213.15V1213.15Z" fill="#222742"/>
<path d="M181.332 1201.34C181.331 1201.29 181.339 1201.25 181.356 1201.21C181.372 1201.17 181.396 1201.13 181.428 1201.1C181.459 1201.07 181.496 1201.05 181.537 1201.03C181.577 1201.02 181.621 1201.01 181.665 1201.01L181.998 1201.34C180.369 1202.45 178.811 1203.65 177.33 1204.95C174.662 1207.24 173.329 1209.87 172.997 1209.54C173.082 1208.42 173.427 1207.33 174.005 1206.37C174.583 1205.4 175.378 1204.58 176.33 1203.96C177.895 1202.47 179.86 1201.44 181.995 1201.01L182.328 1201.34H181.332Z" fill="#222742"/>
<path d="M185.668 1202.32C185.668 1202.65 183.335 1203.63 181.335 1205.27C179.002 1207.24 178.002 1209.21 177.667 1208.88C177.334 1208.88 178 1206.26 180.667 1203.96C181.29 1203.29 182.076 1202.79 182.951 1202.5C183.826 1202.22 184.761 1202.15 185.668 1202.32V1202.32Z" fill="#222742"/>
<path d="M189.668 1202.98C188.576 1204.02 187.342 1204.9 186 1205.6C184 1206.91 182.667 1208.56 182.332 1208.56C181.997 1208.56 183 1206.26 185 1204.62C187.34 1202.98 189.668 1202.65 189.668 1202.98Z" fill="#222742"/>
<path d="M171.332 1206.59C170.908 1206.36 170.561 1206.02 170.331 1205.6C170.025 1204.31 169.913 1202.99 169.999 1201.67C169.945 1200.78 170.057 1199.89 170.331 1199.04C170.664 1198.71 170.664 1197.73 171.664 1197.73C172.664 1197.4 173.339 1198.71 173.339 1199.38C173.674 1200.56 173.674 1201.81 173.339 1202.99C173.339 1203.64 173.006 1204.3 173.006 1204.96C173.006 1205.28 172.674 1205.61 172.674 1205.94C172.515 1206.14 172.313 1206.3 172.083 1206.42C171.852 1206.53 171.599 1206.59 171.341 1206.6C169.983 1206.57 168.636 1206.34 167.341 1205.94C166.088 1205.56 165.019 1204.75 164.341 1203.64C164.174 1203.34 164.087 1203 164.087 1202.66C164.087 1202.32 164.174 1201.98 164.341 1201.68C164.341 1201.02 165.673 1201.02 165.673 1201.35L166.341 1201.68C167.173 1202.15 167.955 1202.7 168.673 1203.32C171.006 1205.62 172.006 1207.59 171.674 1207.59C171.341 1207.59 170.341 1205.94 168.006 1203.98C167.338 1203.65 166.673 1202.99 166.006 1202.67L165.338 1202.34V1202.01H165.671C165.669 1202.37 165.786 1202.71 166.003 1203C166.671 1204.64 169.671 1205.29 171.336 1205.62C171.669 1205.95 172.004 1203.97 172.336 1203.33V1200.05C172.336 1199.39 172.004 1199.39 172.004 1199.39C171.671 1199.39 171.671 1199.72 171.671 1200.05C171.376 1200.89 171.262 1201.78 171.339 1202.67C171.102 1203.86 170.991 1205.07 171.006 1206.28C170.999 1205.93 171.332 1206.26 171.332 1206.59V1206.59Z" fill="#222742"/>
<path d="M95.0002 1184.93C90.6595 1186.26 86.1912 1187.14 81.6666 1187.56C77.1853 1188.56 72.5938 1189 68.0005 1188.87C72.3412 1187.55 76.8095 1186.67 81.3341 1186.25C85.8481 1185.46 90.4172 1185.02 95.0002 1184.93Z" fill="#222742"/>
<path d="M174.66 1182.31C170.04 1183.19 165.36 1183.74 160.658 1183.96C156.016 1184.55 151.323 1184.66 146.657 1184.28C151.277 1183.4 155.957 1182.85 160.658 1182.64C165.314 1182.24 169.99 1182.13 174.66 1182.31V1182.31Z" fill="#222742"/>
<path d="M49.6641 924.456C49.9967 924.128 52.9969 931.345 51.6643 940.201C51.0282 945.616 48.8307 950.739 45.3313 954.965C47.792 950.224 49.4794 945.131 50.3317 939.874C50.9326 934.732 50.7073 929.529 49.6641 924.456V924.456Z" fill="#222742"/>
<path d="M148 917.568C146.056 917.222 144.157 916.669 142.334 915.92C138.036 914.084 134.09 911.536 130.668 908.385C127.304 905.128 124.49 901.363 122.335 897.231C120.66 893.951 120.002 891.983 120.335 891.983C120.667 891.655 124.002 899.857 131.668 907.401C136.507 911.65 142.025 915.085 148 917.568V917.568Z" fill="#222742"/>
<path d="M114.007 950.048C111.862 951.484 109.637 952.798 107.341 953.985L107.008 954.312L106.676 953.985C103.134 947.631 100.017 941.056 97.3449 934.303C94.3447 926.768 91.6794 919.869 90.3444 914.948C89.6768 912.322 89.0118 910.354 88.6696 908.715C88.5388 908.31 88.5323 907.876 88.6511 907.468C88.7698 907.059 89.0085 906.694 89.3371 906.419C89.1049 907.167 89.1049 907.967 89.3371 908.715C89.6697 910.026 90.6698 911.995 91.3373 914.62C93.0121 919.541 95.6702 926.431 98.9934 933.975C102.326 941.849 105.659 948.739 107.994 953.658L107.327 953.331C109.465 952.07 111.698 950.973 114.007 950.048V950.048Z" fill="#222742"/>
<path d="M160.666 1183.29V1171.81C160.666 1163.94 160.998 1153.45 161.333 1140.65C162.001 1114.07 162.666 1077.99 163.666 1038.29C163.079 1019.59 159.479 1001.1 153 983.505C147.623 969.213 141.045 955.386 133.333 942.17C128.149 933.234 122.474 924.583 116.334 916.254C114.334 913.63 112.668 911.333 111.334 909.365C110.708 908.649 110.148 907.881 109.659 907.069C109.659 907.069 110.327 907.726 111.659 909.365C112.992 911.003 114.66 912.974 116.992 915.925C123.263 924.234 129.05 932.886 134.326 941.84C142.288 955.089 148.983 969.036 154.325 983.503C161.047 1001.15 164.766 1019.77 165.331 1038.62C164.331 1078.31 163.331 1114.07 162.663 1140.97C162.331 1153.77 161.996 1164.26 161.663 1171.82C161.663 1175.1 161.331 1178.05 161.331 1180.34C161.179 1181.34 160.957 1182.33 160.666 1183.29V1183.29Z" fill="#222742"/>
<path d="M81.6667 1188.21C81.698 1187.33 81.8092 1186.45 81.9992 1185.59C82.3318 1183.29 82.9993 1180.67 83.674 1177.71C85.3488 1170.5 87.3418 1160.65 90.007 1148.85C93.0499 1134.53 96.0501 1120.21 99.0077 1105.87C100.682 1097.67 102.341 1089.14 104.008 1080.61C105.854 1071.61 107.189 1062.52 108.008 1053.38C108.341 1034.35 104.008 1016.65 99.3426 1000.89C95.0861 986.925 89.962 973.228 83.9993 959.879C78.999 948.398 74.6685 939.212 71.3333 932.979C70.0007 930.027 68.6656 927.731 67.6655 925.762C67.1349 924.932 66.6886 924.053 66.3329 923.137C66.9158 923.816 67.3675 924.594 67.6655 925.433C68.6656 927.401 69.9983 929.697 71.6658 932.65C74.9986 938.883 79.6665 947.741 84.6669 959.222C90.6026 972.616 95.8316 986.303 100.333 1000.23C105.001 1015.97 109.334 1034.02 108.999 1053.05C108.203 1062.3 106.867 1071.49 104.999 1080.59C103.422 1089.03 101.755 1097.45 99.9982 1105.86C96.6654 1121.93 93.3327 1136.36 90.6674 1148.83C87.9997 1160.64 85.667 1170.15 84.0018 1177.7C83.335 1180.65 82.6683 1183.28 82.0016 1185.57C82.0225 1186.46 81.9096 1187.35 81.6667 1188.21V1188.21Z" fill="#222742"/>
<path opacity="0.14" d="M32.0001 781.755C32.0001 781.755 38.6657 834.244 122.333 826.043L124.665 825.716L123.998 818.181L32.0001 781.755Z" fill="#343B73"/>
<path opacity="0.14" d="M27.3323 858.518L47.999 864.094C53.2494 865.407 58.7498 865.407 64.0002 864.094C78.3338 860.157 106.001 849.987 110.667 829.975C96.0003 846.705 75.3336 855.891 51.9993 862.453L27.3323 858.518Z" fill="#343B73"/>
<path d="M99.9982 908.712C100.031 909.329 99.8773 909.94 99.5567 910.471C99.2361 911.001 98.763 911.426 98.1972 911.691C97.6313 911.957 96.9981 912.051 96.3777 911.963C95.7572 911.874 95.1774 911.607 94.7115 911.194C94.2455 910.781 93.9145 910.242 93.76 909.644C93.6056 909.046 93.6348 908.416 93.8439 907.835C94.0531 907.253 94.4328 906.745 94.935 906.376C95.4372 906.007 96.0394 905.792 96.6654 905.76C97.4817 905.798 98.2594 906.113 98.8668 906.651C99.4742 907.189 99.8739 907.918 99.9982 908.712V908.712Z" fill="#222742"/>
<path d="M1150.33 830.308C1151.26 826.51 1153.5 823.146 1156.66 820.795C1154.71 818.766 1152.6 816.9 1150.33 815.217" fill="#F7D3A9"/>
<path d="M1151 812.591C1148.33 814.24 1145 812.591 1142 811.607C1138.26 810.294 1134.24 809.954 1130.33 810.623C1129.86 810.574 1129.39 810.69 1129 810.95C1127.66 811.934 1128.66 813.903 1130 814.56C1131.33 815.217 1133 815.217 1134.67 815.871C1135 816.199 1135.33 816.199 1135.33 816.528C1135.67 817.185 1134.67 818.177 1134 818.497C1129.77 821.51 1126.06 825.166 1122.99 829.328C1122.36 830.094 1121.9 830.991 1121.66 831.954C1121.64 832.467 1121.74 832.979 1121.98 833.439C1122.21 833.899 1122.56 834.291 1122.99 834.579C1124.99 835.563 1127.99 830.969 1130.33 831.626C1129.69 833.771 1129.25 835.966 1128.99 838.186C1128.99 838.843 1128.99 839.835 1129.66 840.155C1129.84 840.177 1130.03 840.159 1130.2 840.102C1130.37 840.046 1130.53 839.952 1130.66 839.827C1132.34 838.843 1134.33 835.563 1136 834.252C1136.66 835.563 1135.66 839.5 1136 840.812C1136 842.123 1137.33 844.092 1138.66 843.764C1140.66 843.437 1140.66 838.843 1142 837.204C1143.33 836.22 1142 840.157 1143 843.437C1143 843.437 1145.33 846.717 1147.66 839.827C1148.89 836.394 1149.89 832.888 1150.66 829.33" fill="#F7D3A9"/>
<path d="M1164.33 658.079C1160.91 652.441 1158.01 646.512 1155.67 640.365C1155.33 639.381 1155 638.397 1155.67 637.74C1156.33 637.083 1157.34 637.74 1158 638.397C1158.66 639.054 1159.33 640.045 1160 640.045C1160.38 637.536 1160.27 634.978 1159.67 632.51C1159.33 629.885 1160 626.934 1162 625.95C1164 630.214 1165.67 634.479 1167.33 638.745C1167.06 636.021 1166.94 633.282 1167 630.544C1166.95 629.764 1167.06 628.982 1167.33 628.248C1167.39 628.092 1167.48 627.949 1167.6 627.83C1167.72 627.711 1167.86 627.617 1168.02 627.555C1168.18 627.493 1168.35 627.464 1168.52 627.471C1168.69 627.477 1168.85 627.518 1169.01 627.591C1169.68 627.919 1169.67 628.903 1169.67 629.887C1170.01 639.4 1171.35 649.57 1175.68 657.771C1175.19 657.23 1174.54 656.846 1173.83 656.671C1173.12 656.495 1172.37 656.536 1171.68 656.787C1169.67 657.114 1167.01 657.771 1164.34 658.098" fill="#F7D3A9"/>
<path d="M1270.66 1075.69L1275 1094.72L1264.66 1094.39L1259 1075.37L1270.66 1075.69Z" fill="#DEE3FF"/>
<path d="M1274.67 1094.06C1276.88 1097.18 1278.26 1100.79 1278.67 1104.56L1221.32 1108.5C1221.32 1108.5 1218.32 1098.98 1264.32 1094.72L1274.67 1094.06Z" fill="#343B73"/>
<path d="M1248.67 1093.41C1250.73 1093.42 1252.72 1094.11 1254.33 1095.38C1257.67 1097.34 1258.67 1100.3 1258.33 1100.62C1258 1100.95 1256.33 1098.33 1253.33 1096.69C1251 1095.04 1248.66 1094.39 1248 1093.73L1248.67 1093.41V1093.41Z" fill="#222742"/>
<path d="M1244.33 1094.72C1244.33 1094.39 1247 1094.39 1250 1096.03C1252.66 1097.68 1254 1100.3 1253.66 1100.3C1253.33 1100.62 1251.99 1098.65 1249.33 1097.02C1246.66 1095.7 1244.33 1095.38 1244.33 1094.72Z" fill="#222742"/>
<path d="M1240.33 1096.03C1240.33 1095.71 1242.66 1095.71 1245 1097.02C1247.33 1098.33 1248.67 1100.3 1248.33 1100.63C1248 1100.96 1246.66 1099.64 1244.33 1098.33C1242.33 1097.02 1240.33 1096.69 1240.33 1096.03Z" fill="#222742"/>
<path d="M1259 1097.02C1259.01 1096.56 1259.13 1096.12 1259.33 1095.71C1259.21 1094.49 1258.99 1093.28 1258.66 1092.1C1258.33 1091.44 1258 1090.45 1257.66 1089.8C1257.33 1089.47 1257.33 1089.14 1257 1089.14V1089.8C1256.96 1090.9 1257.07 1092.01 1257.33 1093.08C1257.66 1094.07 1258.33 1095.71 1258.66 1095.38C1260.34 1094.72 1263.33 1093.73 1263.66 1092.1V1091.11L1262.99 1091.44C1262.33 1092.1 1261.66 1092.42 1260.99 1093.09C1259.7 1094.28 1258.67 1095.74 1257.99 1097.35C1258.37 1095.56 1259.17 1093.87 1260.33 1092.43L1262.33 1090.46L1262.99 1090.14C1262.99 1089.81 1264.33 1089.81 1264.33 1090.46C1264.49 1090.77 1264.58 1091.1 1264.58 1091.45C1264.58 1091.79 1264.49 1092.13 1264.33 1092.43C1264.13 1093.09 1263.79 1093.69 1263.33 1094.2C1262.87 1094.71 1262.3 1095.11 1261.66 1095.38C1260.52 1096.02 1259.28 1096.46 1257.99 1096.7C1257.49 1096.61 1257.03 1096.38 1256.66 1096.04C1256.33 1095.71 1256.33 1095.38 1255.99 1095.05C1255.66 1094.4 1255.66 1093.74 1255.32 1093.41C1255.05 1092.22 1254.94 1091.01 1254.99 1089.8C1254.99 1089.47 1255.32 1088.15 1256.32 1088.15C1257.32 1088.15 1257.66 1088.81 1258 1089.46C1258.34 1090.3 1258.56 1091.18 1258.67 1092.09C1259.08 1093.35 1259.2 1094.7 1259 1096.02C1259.66 1096.69 1259.33 1097.02 1259 1097.02V1097.02Z" fill="#222742"/>
<path d="M1334.67 1070.11L1338.67 1089.14L1328.33 1088.82L1322.67 1069.79L1334.67 1070.11Z" fill="#DEE3FF"/>
<path d="M1338.67 1088.49C1340.88 1091.6 1342.26 1095.21 1342.67 1098.98L1285.32 1102.92C1285.32 1102.92 1282.32 1093.41 1328.32 1089.14L1338.67 1088.49Z" fill="#343B73"/>
<path d="M1312.33 1087.83C1314.39 1087.84 1316.39 1088.53 1318 1089.8C1321.33 1091.77 1322.33 1094.72 1322 1095.05C1321.67 1095.37 1320 1092.75 1317 1091.11C1314.67 1089.46 1312.33 1088.81 1311.66 1088.16L1312.33 1087.83V1087.83Z" fill="#222742"/>
<path d="M1308 1089.14C1308 1088.81 1310.67 1088.81 1313.66 1090.45C1316.33 1092.1 1317.67 1094.72 1317.33 1094.72C1317 1095.05 1315.66 1093.07 1313 1091.44C1311.28 1090.79 1309.61 1090.02 1308 1089.14V1089.14Z" fill="#222742"/>
<path d="M1304 1090.46C1304 1090.13 1306.33 1090.13 1308.67 1091.44C1311 1092.75 1312.33 1094.72 1312 1095.05C1311.66 1095.38 1310.32 1094.07 1308 1092.75C1306 1091.44 1304 1090.78 1304 1090.46Z" fill="#222742"/>
<path d="M1323 1091.44C1323.01 1090.99 1323.13 1090.54 1323.33 1090.13C1323.21 1088.91 1322.99 1087.7 1322.66 1086.52C1322.33 1085.86 1322 1084.87 1321.66 1084.22C1321.33 1083.9 1321.33 1083.57 1321 1083.57V1084.22C1320.96 1085.33 1321.07 1086.43 1321.33 1087.5C1321.66 1088.49 1322.33 1090.13 1322.66 1089.8C1324.34 1089.14 1327.33 1088.15 1327.66 1086.52V1085.53L1326.99 1085.86C1326.33 1086.52 1325.66 1086.85 1324.99 1087.51C1323.7 1088.71 1322.67 1090.16 1321.99 1091.77C1322.38 1089.98 1323.17 1088.3 1324.33 1086.85L1326.33 1084.88L1326.99 1084.56C1326.99 1084.23 1328.33 1084.23 1328.33 1084.88C1328.49 1085.19 1328.58 1085.53 1328.58 1085.87C1328.58 1086.21 1328.49 1086.55 1328.33 1086.85C1328.13 1087.51 1327.79 1088.11 1327.33 1088.62C1326.87 1089.13 1326.3 1089.54 1325.66 1089.81C1324.52 1090.44 1323.28 1090.88 1321.99 1091.12C1321.49 1091.04 1321.03 1090.81 1320.66 1090.46C1320.33 1090.13 1320.33 1089.8 1319.99 1089.48C1319.66 1088.82 1319.66 1088.16 1319.33 1087.83C1319.05 1086.65 1318.94 1085.43 1318.99 1084.22C1318.99 1083.89 1319.33 1082.57 1320.33 1082.57C1321.33 1082.57 1321.66 1083.23 1322 1083.88C1322.34 1084.72 1322.57 1085.61 1322.67 1086.51C1323.09 1087.78 1323.2 1089.12 1323 1090.44C1323.33 1091.11 1323 1091.44 1323 1091.44V1091.44Z" fill="#222742"/>
<path d="M1296.66 642.331C1296.66 642.331 1337.34 629.866 1357 708.262C1376.66 786.339 1364.33 808.318 1364.33 808.318L1262.33 795.862C1262.33 795.862 1276.33 754.855 1272.33 729.595C1268.33 704.334 1253 656.438 1253 656.438C1253 656.438 1275.33 639.379 1296.66 642.331V642.331Z" fill="#343B73"/>
<path d="M1160.66 657.095C1160.66 657.095 1186.33 743.374 1219 726.322C1251.66 709.27 1294 675.801 1294 675.801L1257.67 650.206C1257.67 650.206 1216.99 698.758 1207.66 691.212C1198.66 683.677 1177.33 655.781 1177.33 655.781L1160.66 657.095Z" fill="#343B73"/>
<path opacity="0.35" d="M1257.66 650.206L1221.33 725.319L1270 693.498L1268 655.772L1257.66 650.206Z" fill="#282F56"/>
<path d="M1280 787.003C1280 787.003 1198.33 878.531 1192 906.415C1185.66 933.964 1258.33 1085.86 1258.33 1085.86L1276.33 1084.55C1276.33 1084.55 1237 937.581 1241 920.521C1245 903.462 1285 855.566 1285 855.566C1285 855.566 1257.67 907.726 1268 956.279C1279.33 1009.42 1320.67 1074.05 1320.67 1074.05L1337.66 1072.74C1337.66 1072.74 1298.33 941.518 1314 912.977C1330.33 882.795 1365.66 808 1365.66 808L1280 787.003Z" fill="#343B73"/>
<path d="M1328 811.607C1327.73 812.469 1327.5 813.346 1327.33 814.233C1326.66 816.201 1325.66 818.497 1324.66 821.45C1322 828.339 1318.66 837.197 1314.66 848.022C1310.33 859.503 1305.33 872.626 1300 887.06C1297.33 894.594 1294.33 902.15 1291.33 910.024C1289.76 914.072 1288.53 918.242 1287.66 922.49C1287 926.754 1286.33 931.348 1285.99 935.612C1285.66 953.656 1289.32 970.715 1293.32 985.804C1297.06 999.189 1301.62 1012.34 1306.99 1025.17C1311.32 1036.33 1315.32 1044.85 1318.32 1051.09C1319.65 1053.71 1320.65 1056.01 1321.65 1057.98C1322.32 1059.62 1322.65 1060.27 1322.65 1060.27C1322.07 1059.59 1321.62 1058.82 1321.32 1057.98C1320.22 1055.62 1319 1053.32 1317.65 1051.09C1314.65 1045.18 1310.65 1036.32 1305.99 1025.5C1300.55 1012.65 1295.87 999.51 1291.99 986.131C1286.94 969.749 1284.36 952.728 1284.33 935.61C1284.54 931.091 1285.1 926.595 1286 922.16C1286.98 917.903 1288.32 913.734 1290.01 909.695C1293.01 901.821 1296.01 893.949 1299.01 886.73C1304.67 872.296 1309.67 858.846 1314.01 847.692C1318.34 836.861 1321.66 828.01 1324.34 821.447C1325.34 818.822 1326.34 816.199 1327.34 814.23C1327.23 813.306 1327.46 812.374 1328 811.607V811.607Z" fill="#222742"/>
<path d="M1284.33 814.232C1284.33 814.232 1283.66 814.889 1282.33 816.528C1280.66 818.176 1278.66 820.465 1276.33 823.088C1271.33 828.664 1263.67 836.868 1255 847.365C1244.48 859.332 1234.57 871.814 1225.33 884.764C1223 888.373 1220.33 892.298 1218 896.245C1215.45 900.244 1213.75 904.707 1213 909.367C1211.32 918.88 1212.66 929.05 1214.33 939.219C1218.09 958.212 1223.44 976.865 1230.33 994.989C1236.33 1011.72 1242.33 1026.81 1247.66 1039.28C1253 1051.75 1257.33 1061.91 1260.33 1068.8C1261.66 1072.08 1263 1074.71 1264 1076.68C1264.32 1077.71 1264.77 1078.7 1265.33 1079.63C1264.8 1078.8 1264.36 1077.92 1264 1077C1263 1074.71 1261.66 1072.41 1260.33 1069.13C1257 1062.24 1252.67 1052.4 1247.33 1039.93C1241.98 1027.46 1236 1012.38 1230 995.644C1223.11 977.407 1217.76 958.645 1214 939.547C1212.32 929.377 1211 919.207 1212.66 909.365C1213.53 904.582 1215.34 900.013 1218 895.915C1220.33 891.651 1223 888.041 1225.33 884.104C1234.59 871.083 1244.61 858.596 1255.33 846.705C1264.33 836.536 1271.66 828.339 1277 822.756C1278.92 820.609 1280.92 818.53 1283 816.524C1283.14 815.623 1283.61 814.806 1284.33 814.232V814.232Z" fill="#222742"/>
<path d="M1274.33 1079.3C1271.18 1080.16 1267.93 1080.6 1264.67 1080.61C1261.46 1081.01 1258.21 1081.01 1255 1080.61C1258.15 1079.75 1261.4 1079.31 1264.67 1079.3C1267.88 1078.9 1271.12 1078.9 1274.33 1079.3V1079.3Z" fill="#222742"/>
<path d="M1337.33 1062.9C1333.8 1064.26 1330.1 1065.14 1326.33 1065.52C1322.6 1066.34 1318.81 1066.78 1314.99 1066.83C1318.52 1065.47 1322.23 1064.59 1326 1064.21C1329.73 1063.42 1333.52 1062.99 1337.33 1062.9Z" fill="#222742"/>
<path d="M1349.67 838.836C1348.68 838.959 1347.68 838.845 1346.75 838.502C1345.82 838.159 1344.99 837.598 1344.33 836.868C1341.43 833.426 1339.69 829.186 1339.33 824.729C1338.46 818.48 1339.75 812.125 1343 806.686C1340.88 812.344 1340.09 818.398 1340.67 824.4C1341.06 828.638 1342.55 832.705 1345 836.211C1346.25 837.526 1347.88 838.441 1349.67 838.836V838.836Z" fill="#222742"/>
<path d="M1297.33 796.187C1296.41 798.024 1295.17 799.689 1293.67 801.108C1290.02 804.619 1285.72 807.403 1281 809.309C1276.27 811.315 1271.14 812.214 1266 811.934C1262 811.934 1259.67 811.277 1259.67 810.95C1266.69 811.368 1273.72 810.363 1280.33 807.997C1291.33 803.736 1296.99 795.862 1297.33 796.187V796.187Z" fill="#222742"/>
<path d="M1309.66 796.189C1309 797.986 1308.22 799.739 1307.33 801.437C1305.35 805.607 1303.13 809.66 1300.67 813.576C1298.35 817.547 1295.79 821.381 1293.01 825.057C1292.34 826.369 1293.68 827.353 1294.34 828.01C1294.83 828.136 1295.28 828.36 1295.68 828.667C1295.1 828.639 1294.54 828.529 1294 828.339C1293.35 828.201 1292.76 827.855 1292.33 827.355C1291.95 827.034 1291.71 826.589 1291.65 826.105C1291.59 825.621 1291.71 825.131 1291.99 824.73C1293.99 821.45 1296.66 817.513 1299.33 812.919C1305.33 803.724 1309.33 796.189 1309.66 796.189Z" fill="#222742"/>
<path d="M1315 799.469C1314.5 799.746 1314.06 800.123 1313.72 800.575C1313.37 801.027 1313.13 801.544 1313 802.094C1313 803.079 1314 804.39 1315 804.063C1315.33 804.063 1315.67 803.736 1316 803.406C1316.35 802.744 1316.45 801.976 1316.26 801.249C1316.08 800.523 1315.63 799.889 1315 799.469" fill="#222742"/>
<path opacity="0.35" d="M1271.66 796.519L1365.66 808L1361 817.513L1269.33 799.146L1271.66 796.519Z" fill="#282F56"/>
<path d="M1212.66 607.885L1229 641.675C1229.84 643.469 1231.04 645.081 1232.53 646.417C1234.01 647.753 1235.75 648.786 1237.64 649.457C1239.53 650.128 1241.54 650.424 1243.54 650.327C1245.55 650.23 1247.52 649.742 1249.33 648.892L1254 646.923L1271.34 666.278L1298.67 642.659L1249.66 588.203L1212.66 607.885Z" fill="#F7D3A9"/>
<path d="M1199.33 595.09C1199.33 595.09 1201.01 586.562 1216 588.53C1230.66 590.499 1239.66 570.164 1255.33 575.735C1271 581.306 1279.66 597.059 1282.66 612.804L1285.66 624.615L1271.66 636.753C1271.66 636.753 1253 629.864 1251.99 623.958C1251.99 623.958 1264.33 607.556 1251.99 604.276C1239.66 600.996 1243.99 618.71 1243.99 618.71L1239.66 621.99L1229.33 603.291C1229.33 603.291 1213.99 613.788 1203.99 607.556C1193.99 601.323 1199.33 595.09 1199.33 595.09V595.09Z" fill="#343B73"/>
<path d="M1271 672.184C1271.33 670.872 1270 659.061 1270 659.061L1293.67 637.081L1305.67 642.656" fill="#A0CED8"/>
<path d="M1306 642.989L1271 672.186Z" fill="#A0CED8"/>
<path d="M1269 707.614L1263.33 657.422L1272.33 666.606L1269.33 709.58" fill="#A0CED8"/>
<path d="M1270.66 664.639L1279.99 693.18L1269.33 714.843L1270.66 664.639Z" fill="#222742"/>
<path d="M1269 713.192L1259.33 677.437L1263.33 657.422L1269 713.192Z" fill="#222742"/>
<path d="M1264.33 657.422L1270.66 664.639L1270.33 679.073L1265 675.464L1263 659.389" fill="#CC4444"/>
<path d="M1268 677.435C1268 677.435 1275 749.607 1243.33 750.264C1211.66 750.921 1206.33 744.358 1206.33 744.358L1188 754.196L1198 773.224C1198 773.224 1241 787.331 1267.33 770.599C1310.66 743.049 1270.66 679.071 1270.66 679.071L1268 677.435Z" fill="#CC4444"/>
<path d="M1288.33 698.429C1285.33 699.74 1145.66 811.28 1145.66 811.28L1157.33 823.091C1157.33 823.091 1282 752.56 1291.33 737.146C1300.66 721.733 1288.33 698.429 1288.33 698.429Z" fill="#343B73"/>
<path d="M1283.66 743.69C1283.66 743.69 1285 743.033 1287.66 741.394C1291.44 739.513 1295.12 737.432 1298.67 735.161C1303.87 731.825 1308.88 728.209 1313.67 724.33C1316.61 722.2 1319.1 719.525 1321 716.456C1322.09 714.936 1322.72 713.152 1322.84 711.3C1322.96 709.448 1322.55 707.599 1321.67 705.959C1319.38 702.888 1316.08 700.687 1312.34 699.726C1308.95 698.341 1305.34 697.563 1301.67 697.43C1294.67 697.103 1289.01 700.383 1284.34 703.006C1280.34 705.302 1277.01 707.6 1273.67 709.566C1271.01 711.214 1269.67 711.862 1269.67 711.862C1269.67 711.862 1271.01 710.878 1273.34 709.236C1276.34 707.268 1280.01 704.643 1284.01 702.019C1288.34 699.394 1294.34 695.787 1302.01 696.114C1305.78 696.245 1309.51 697.021 1313.01 698.41C1317.02 699.565 1320.54 701.986 1323.01 705.299C1323.98 707.148 1324.43 709.218 1324.31 711.294C1324.2 713.371 1323.52 715.379 1322.34 717.11C1320.32 720.189 1317.72 722.861 1314.69 724.984C1309.95 729.083 1304.82 732.711 1299.36 735.816C1295.64 737.892 1291.86 739.861 1288.02 741.721C1286.95 742.243 1285.83 742.682 1284.69 743.033C1284 743.69 1283.66 743.69 1283.66 743.69V743.69Z" fill="#222742"/>
<path d="M1249.33 758.463C1252 762.072 1247.66 769.617 1239.67 774.865C1231.68 780.114 1223 781.425 1220.67 777.818C1218.33 774.211 1222.34 766.664 1230.33 761.415C1238.33 755.837 1246.66 754.526 1249.33 758.463Z" fill="#222742"/>
<path opacity="0.35" d="M1267.66 776.834C1267.66 776.834 1326 742.387 1322.33 716.472L1268.66 755.183C1268.66 755.183 1271.66 762.072 1267.66 776.834Z" fill="#282F56"/>
<path opacity="0.14" d="M262.667 1217.08C262.667 1223.97 203.999 1229.55 131.333 1229.55C58.9998 1229.55 0 1223.97 0 1217.08C0 1210.2 58.6673 1204.62 131.333 1204.62C203.999 1204.62 262.667 1210.19 262.667 1217.08V1217.08Z" fill="#343B73"/>
<path opacity="0.14" d="M790.332 1201.99C790.332 1208.88 731.665 1214.46 658.999 1214.46C586.665 1214.46 527.666 1208.88 527.666 1201.99C527.666 1195.11 586.333 1189.53 658.999 1189.53C731.665 1189.53 790.332 1195.1 790.332 1201.99Z" fill="#343B73"/>
<path d="M676.665 628.882L689.999 664.312C690.733 666.162 691.082 668.138 691.025 670.123C690.968 672.108 690.506 674.061 689.666 675.867C688.827 677.673 687.627 679.294 686.137 680.634C684.648 681.974 682.901 683.005 680.998 683.667L676.33 685.315L678.331 711.231L641.663 713.856L636.33 641.027L676.665 628.882Z" fill="#F7D3A9"/>
<path d="M675.333 608.212C675.333 608.212 668 603.619 658.999 615.429C649.998 627.24 628.999 619.366 621.998 634.128C614.998 648.889 620.324 666.278 629.655 679.728L636.32 690.225L654.982 688.913C654.982 688.913 662.982 670.87 659.65 665.948C659.65 665.948 638.983 662.996 645.316 652.169C651.649 641.342 661.65 656.763 661.65 656.763L666.983 656.106L660.65 635.767C660.65 635.767 678.984 632.157 681.316 620.676C683.331 608.869 675.333 608.212 675.333 608.212V608.212Z" fill="#343B73"/>
<path d="M611.665 966.121L616.333 1018.61C617.608 1033.71 617.045 1048.91 614.658 1063.88L593.999 1194.12H605.665L644.003 1093.74C651.098 1075.12 655.257 1055.54 656.336 1035.68L660.336 966.451H611.665V966.121Z" fill="#FBC4B6"/>
<path d="M654.999 947.423L664.329 1014.02C667.606 1032.98 669.057 1052.2 668.662 1071.43L665.665 1197.72L675.665 1193.78L696.332 1111.44C704.655 1077.87 707.023 1043.13 703.333 1008.76L699 947.423H654.999V947.423Z" fill="#FBC4B6"/>
<path d="M644.665 713.192C644.665 713.192 612.998 705.975 620.331 752.559C627.664 799.144 635.997 824.075 635.997 824.075C635.997 824.075 580.33 887.389 597.331 972.027L601.664 1019.27H717.331L702.665 795.532L706.333 791.267C709.342 787.779 711.506 783.662 712.661 779.229C713.816 774.796 713.931 770.163 712.998 765.679L707.33 737.139L784.997 725.328L847.997 671.527L833.331 659.716L781.664 697.442L644.665 713.192Z" fill="#343B73"/>
<path d="M650.001 628.879C638.995 641.345 632.667 656.429 645.668 666.605C647.841 667.956 649.576 669.891 650.668 672.181C651.336 673.493 659.001 675.134 659.001 676.445C658.001 692.848 649.001 709.58 647.996 725.983C647.663 732.543 646.996 739.105 643.663 744.681C638.662 752.555 628.664 755.835 621.651 762.068C613.995 768.628 609.651 778.143 602.99 786.017C592.656 797.498 577.655 804.06 561.989 806.031C542.478 808.624 522.696 803.816 506.654 792.581C498.754 786.85 492.384 779.32 488.088 770.636C483.792 761.951 481.698 752.372 481.987 742.717C483.32 714.833 508.32 691.541 535.987 685.636C547.653 683.34 559.986 683.34 571.32 680.387C582.986 677.434 594.654 670.217 597.987 659.063C599.987 652.831 598.987 645.941 601.655 639.708C601.655 639.708 608.32 614.12 650.989 621.342" fill="#343B73"/>
<path d="M608.665 1193.46C608.665 1193.46 629.999 1196.74 630.999 1201.34C631.999 1205.6 592.001 1199.04 592.001 1199.04L592.668 1194.12" fill="#343B73"/>
<path d="M675.998 1192.81C675.998 1192.81 701.998 1194.12 703.33 1198.38C705.005 1202.65 664.664 1201.66 664.664 1201.66V1196.74" fill="#343B73"/>
<path d="M607 873.937L708.666 886.075Z" fill="#222742"/>
<path d="M708.666 886.077C708.666 886.405 685.666 884.109 657.666 880.829C629.667 877.549 607 874.266 607 873.93C607 873.593 629.999 875.898 657.999 879.178C685.999 882.795 708.666 885.748 708.666 886.077Z" fill="#222742"/>
<path d="M664.332 817.84C659.787 819.388 655.097 820.487 650.331 821.12C645.615 822.103 640.816 822.655 635.997 822.768C640.542 821.219 645.232 820.121 649.998 819.488C654.714 818.504 659.513 817.952 664.332 817.84V817.84Z" fill="#222742"/>
<path d="M668.33 829.326C663.862 829.462 659.393 829.132 654.996 828.341C647.663 827.357 641.995 826.046 641.995 825.389C646.463 825.253 650.932 825.583 655.329 826.373C662.334 827.684 668.33 828.669 668.33 829.326Z" fill="#222742"/>
<path d="M728.332 732.875C725.638 733.836 722.843 734.496 719.999 734.843C714.666 735.827 707.333 737.139 699.332 738.453C691.332 739.767 683.998 740.748 678.666 741.405C675.849 741.893 673.066 742.55 670.332 743.374C670 743.047 673 741.078 678.333 740.094C683.666 739.11 690.999 737.798 699 736.484C707 735.17 714.333 734.188 719.666 733.531C724.999 733.202 728.332 732.875 728.332 732.875V732.875Z" fill="#222742"/>
<path d="M771.333 726.969C777.666 718.768 787.999 714.831 798.333 713.847C794.931 716.974 791.371 719.931 787.667 722.705C786.999 723.362 785.992 724.673 784.999 725.001C784.332 725.328 783.667 725.001 782.667 725.328C778.334 726.312 774.333 726.312 770.666 727.296" fill="#222742"/>
<path d="M650.998 703.677C651.331 703.677 651.331 707.614 648.998 713.847C646.665 719.752 642.998 727.626 638.665 736.482C634.942 743.901 630.476 750.934 625.331 757.478C623.197 760.162 620.856 762.681 618.331 765.013C617.998 764.686 620.663 761.733 624.331 756.812C629.038 750.108 633.27 743.092 636.997 735.816C640.723 728.46 644.279 721.022 647.663 713.508C648.963 710.296 650.077 707.013 650.998 703.677V703.677Z" fill="#222742"/>
<path d="M684.999 890.669C683.267 934.128 684.715 977.653 689.331 1020.91Z" fill="#222742"/>
<path d="M689.666 1021.23L688.666 1016.31C688.334 1013.03 687.666 1008.44 686.992 1002.53C685.659 990.723 684.659 974.32 683.991 956.279C683.324 938.238 683.659 921.833 683.991 910.024C684.324 904.119 684.324 899.193 684.659 895.917C684.994 892.642 684.991 890.669 685.326 890.669C685.54 892.412 685.54 894.174 685.326 895.917V910.024C685.326 921.835 685.326 938.238 685.994 956.279C686.661 974.32 687.669 990.398 688.662 1002.21C688.994 1007.78 689.329 1012.7 689.662 1016.31L689.666 1021.23Z" fill="#222742"/>
<path d="M835.666 663.655C837.999 655.454 840.999 646.596 847.332 640.69C849.332 643.643 845.999 647.58 847.332 650.86C850.665 647.58 854.988 644.3 859.665 645.284C858.414 648.036 856.315 650.331 853.665 651.844C856.998 650.196 860.998 648.564 864.671 649.876C861.338 652.501 858.005 654.797 854.67 657.093C858.301 656.44 861.984 656.11 865.675 656.108C866.343 656.765 865.343 657.757 864.675 658.077C862.142 659.548 859.461 660.758 856.675 661.687C858.35 661.687 859.675 662.014 861.343 662.014C862.01 662.014 862.675 662.014 863.017 662.671C863.359 663.328 862.685 664.319 862.017 664.967C859.767 666.365 857.285 667.365 854.684 667.919C851.684 668.904 848.351 669.568 845.353 670.545H844.671C844.498 670.533 844.335 670.46 844.212 670.339C844.09 670.219 844.016 670.058 844.004 669.888C841.263 666.848 837.666 664.679 833.671 663.655" fill="#F7D3A9"/>
<path d="M1346 139.75L1354 153.53L1368 161.404L1354 168.948L1346 182.728L1338.33 168.948L1324.33 161.413L1338.33 153.539L1346 139.75Z" fill="#F9F9F9"/>
<path d="M104.678 118.1L112.334 131.879L126.668 139.753L112.334 147.297L104.678 161.404L97.0219 147.297L82.6667 139.762L97.0004 131.888L104.678 118.1Z" fill="#F9F9F9"/>
<path d="M683.666 380.871L695.332 402.195L716.999 414.006L695.332 425.487L683.666 446.811L671.665 425.487L650.331 414.006L671.665 402.195L683.666 380.871Z" fill="#F9F9F9"/>
<path d="M213.993 214.548C213.969 214.8 213.85 215.035 213.66 215.205C213.26 215.827 212.925 216.486 212.66 217.174C211.303 219.511 210.079 221.92 208.992 224.391C205.66 230.624 200.992 239.482 194.991 250.306C184.991 255.882 172.657 262.444 158.991 269.989V268.677C169.997 274.582 181.99 281.142 194.991 288.032H195.324V288.359C201.657 299.513 208.325 311.324 214.99 323.79H213.316V323.463L213.648 322.806L214.316 321.821L215.648 319.526C216.649 317.877 217.323 316.573 218.316 314.932L223.317 306.073C226.649 300.168 229.982 294.263 232.982 288.687V288.359H233.315C245.981 281.47 258.314 274.91 269.315 269.004V270.316C255.649 262.77 243.649 256.209 233.315 250.633C227.314 239.479 222.649 230.951 219.314 224.718C217.89 222.416 216.663 220.003 215.646 217.501L214.646 215.533C214.474 215.174 214.249 214.843 213.978 214.548C213.978 214.548 214.311 215.205 215.311 216.844C216.311 218.483 217.644 220.781 219.311 223.734C222.979 229.967 227.977 238.825 234.313 249.649L233.98 249.322C244.313 254.898 256.314 261.133 269.98 268.677L271.313 269.334L269.98 269.991C258.975 275.896 246.981 282.456 233.98 289.346L234.313 289.019C231.312 294.595 227.98 300.5 224.647 306.405L219.646 315.264C218.646 316.912 217.972 318.216 216.979 319.858L215.646 322.153L214.979 323.138L214.646 323.795V324.122H212.971C206.306 311.656 199.638 299.845 193.305 288.691L193.637 289.019C180.636 282.129 168.638 275.569 157.637 269.664L156.304 269.007L157.637 268.35C171.303 261.133 183.636 254.57 193.637 248.994L193.305 249.322C198.234 240.644 203.235 232.005 208.306 223.407C209.973 220.454 211.306 218.157 212.306 216.517C213.046 216.031 213.631 215.348 213.993 214.548V214.548Z" fill="#F9F9F9"/>
<path d="M972.002 480.273L980.002 494.707L994.669 502.581L980.002 510.455L972.002 524.889L964.001 510.455L949.667 502.581L964.001 494.707L972.002 480.273Z" fill="#F9F9F9"/>
<path d="M530.998 514.389L534.999 521.279L541.999 524.889L534.999 528.825L530.998 535.715L527.331 528.825L520.33 524.889L527.331 521.279L530.998 514.389Z" fill="#F9F9F9"/>
<path d="M1272.33 41.0061L1276.33 47.8958L1283.33 51.8328L1276.33 55.4401L1272.33 62.3298L1268.66 55.4401L1261.67 51.8375L1268.67 47.9005L1272.33 41.0061Z" fill="#F9F9F9"/>
<path d="M426.34 182.725L430.007 189.615L437.008 193.552L430 197.159L426.34 204.049L422.339 197.159L415.334 193.557L422.334 189.62L426.34 182.725Z" fill="#F9F9F9"/>
<path d="M300.344 847.694L308 861.474L322.334 869.348L308 876.883L300.344 890.662L292.688 876.883L278.354 869.348L292.688 861.474L300.344 847.694Z" fill="#F9F9F9"/>
<path d="M481.999 894.279L486 901.168L493 905.105L486 908.715L481.999 915.605L478.332 908.715L471.333 905.11L478.334 901.173L481.999 894.279Z" fill="#F9F9F9"/>
<path d="M972.997 371.031V362.173C972.997 356.267 972.997 347.739 972.665 337.24C972.665 315.577 972.332 285.079 972.332 248.338L972.999 248.994H848.004L849.004 248.01V370.704L848.337 370.047C885.66 370.047 916.67 370.374 938.669 370.374C949.675 370.374 958.003 370.374 964.001 370.701H972.334L973.002 371.029H964.001C958.001 371.029 949.667 371.029 938.669 371.356C916.658 371.356 885.335 371.683 847.992 371.683H847.325V248.338L848.325 247.353H973.992V248.01C973.992 284.743 973.66 315.589 973.66 337.251C973.66 347.748 973.66 356.279 973.327 362.185V370.386C973.33 370.701 973.33 371.031 972.997 371.031V371.031Z" fill="#F9F9F9"/>
<path d="M531.996 337.897V333.303C531.996 330.35 531.996 326.086 531.664 321.164C531.664 310.667 531.331 295.904 531.331 278.19L531.999 278.847H471.331L472.331 277.863V337.906L471.664 337.249C489.663 337.249 504.664 337.576 515.33 337.576C520.663 337.576 524.661 337.576 527.663 337.904C524.663 337.904 520.663 337.904 515.33 338.231C504.324 338.231 489.33 338.558 470.996 338.558H470.329V278.515L471.329 277.531H532.661V278.187C532.661 295.901 532.329 310.992 532.329 321.819C532.329 326.74 532.329 331.002 531.996 333.957V337.894V337.897Z" fill="#F9F9F9"/>
<path d="M325.329 123.678V114.82C325.329 108.914 325.329 100.386 324.997 89.8863C324.997 68.2236 324.664 37.7262 324.664 0.984243L325.332 1.64119H200.336L201.336 0.656947V123.348L200.669 122.691C237.992 122.691 269.002 123.019 291.001 123.019C302.007 123.019 310.335 123.019 316.336 123.346H324.669C324.842 123.533 325.08 123.65 325.336 123.673H316.336C310.335 123.673 302.002 123.673 291.001 124C268.99 124 237.667 124.328 200.324 124.328H199.657V0.984243L200.662 0H326.329V0.656947C326.329 37.7262 325.997 68.2353 325.997 89.8981C325.997 100.395 325.997 108.926 325.664 114.831V123.033L325.329 123.678Z" fill="#F9F9F9"/>
<path d="M68.6585 469.776C68.6258 468.567 68.5147 467.361 68.3259 466.166C68.3259 463.87 68.3259 460.59 67.9933 456.653C67.9933 448.452 67.6608 436.971 67.6608 423.519L68.3283 424.176H21.6644L22.6645 423.191V469.119H22.0041C35.6703 469.119 47.3386 469.446 55.6718 469.446C58.8975 469.367 62.1251 469.476 65.3377 469.773H68.6585C67.5418 469.815 66.4287 469.924 65.3257 470.101C62.993 470.101 59.6602 470.101 55.9948 470.428C47.6616 470.428 35.6583 470.755 21.9945 470.755H21.327V424.176L22.3271 423.191H69.6633V423.848C69.6633 437.628 69.3308 449.109 69.3308 457.31C69.4197 460.375 69.3086 463.442 68.9982 466.493C69.0438 467.598 68.9294 468.703 68.6585 469.776V469.776Z" fill="#F9F9F9"/>
<path d="M923.663 1102.26C939.33 1107.51 957.996 1106.2 969.664 1094.39C975.406 1088.39 979.153 1080.81 980.404 1072.67C981.655 1064.52 980.35 1056.19 976.665 1048.79C972.997 1041.57 966.999 1035.01 967.334 1027.13C967.885 1022.87 969.488 1018.82 972.002 1015.32C976.67 1008.43 983.008 1002.52 987.336 995.634C991.669 988.417 994.336 979.559 991.003 972.015C984.338 957.251 960.671 956.597 953.68 941.833C950.347 934.943 951.68 926.742 952.347 919.198C953.015 910.015 952.68 900.5 948.347 892.298C944.014 884.424 934.346 878.519 925.348 880.487C914.682 882.783 909.014 894.594 905.011 904.764C902.343 911.654 899.678 918.214 897.011 925.103C889.677 943.802 882.344 964.141 887.345 983.826C891.345 999.571 902.678 1012.37 912.012 1025.82C913.686 1028.44 915.679 1031.06 915.344 1034.34C915.012 1038.94 910.012 1042.22 905.011 1043.2C900.343 1044.19 895.01 1044.19 891.01 1046.81C886.01 1049.77 883.677 1056 884.009 1061.9C884.672 1067.67 886.983 1073.13 890.675 1077.65C890.663 1077.33 906.329 1096.36 923.663 1102.26V1102.26Z" fill="#A0CFEF"/>
<path d="M934.999 1024.51C942.655 1014.34 950.665 1004.5 958.333 994.332C960.485 991.453 962.823 988.713 965.334 986.131" fill="#A0CFEF"/>
<path d="M912.665 1057.65C919.874 1064.47 926.665 1071.7 933.001 1079.31C934.228 1080.58 935.041 1082.18 935.334 1083.91" fill="#A0CFEF"/>
<path d="M914.665 959.888C920.998 968.417 928.331 983.181 935.001 992.693Z" fill="#A0CFEF"/>
<path d="M852.665 1109.81C873.999 1117.03 899.664 1115.06 915.332 1098.98C923.124 1090.81 928.192 1080.5 929.86 1069.41C931.528 1058.33 929.715 1047.01 924.663 1036.97C919.663 1027.46 911.33 1018.28 911.662 1007.45C912.262 1001.63 914.45 996.073 917.995 991.375C924.328 982.192 932.994 973.988 938.995 964.475C944.995 954.963 948.325 942.495 943.995 932.325C934.994 912.311 902.662 911.329 892.996 891.319C888.328 881.806 890.328 870.979 891.321 860.81C892.321 848.344 891.989 835.222 885.656 824.395C879.655 813.564 866.656 805.367 854.313 808.32C839.647 811.6 831.979 827.348 826.646 841.454C822.978 850.638 819.646 859.821 815.98 869.004C805.979 894.592 795.981 922.148 802.647 948.72C807.98 970.044 823.313 987.758 836.314 1005.8C838.647 1009.08 841.315 1013.02 840.982 1017.28C840.315 1023.84 833.649 1027.78 826.981 1029.09C820.648 1030.41 813.647 1030.41 807.982 1034.02C804.733 1036.29 802.156 1039.37 800.516 1042.94C798.877 1046.52 798.233 1050.45 798.651 1054.35C799.593 1062.14 802.708 1069.52 807.652 1075.68C807.999 1076.02 828.998 1101.93 852.665 1109.81V1109.81Z" fill="#1661A5"/>
<path d="M869.331 1112.11C868.999 1112.11 868.331 1069.46 868.331 1016.64C868.331 963.826 868.664 921.178 869.331 921.178C869.664 921.178 870.331 963.826 870.331 1016.64C870.331 1069.13 870.006 1112.11 869.331 1112.11Z" fill="#222742"/>
<path d="M909.667 952.332C909.667 952.66 906.999 954.958 903.334 959.867C899.669 964.777 894.668 971.349 889 978.566C883.332 985.783 878.334 992.345 874.334 996.932C872.47 999.537 870.349 1001.95 868.001 1004.15C869.564 1001.29 871.347 998.544 873.334 995.948C876.667 991.026 882 984.466 887.668 977.249C893.335 970.032 898.333 963.47 902.334 958.883C906.667 954.31 909.667 952.012 909.667 952.332Z" fill="#222742"/>
<path d="M868.999 1085.2C868.741 1084.67 868.518 1084.12 868.331 1083.56C867.645 1082.12 866.746 1080.79 865.664 1079.62C862.663 1076.34 858.998 1071.75 854.33 1067.15C845.329 1057.31 837.664 1050.09 837.996 1049.77C840.02 1051.01 841.917 1052.43 843.662 1054.03C847.904 1057.84 851.911 1061.89 855.663 1066.17C859.996 1071.09 863.996 1075.68 866.668 1079.29C867.858 1080.63 868.765 1082.2 869.336 1083.89C869.315 1084.34 869.2 1084.79 868.999 1085.2V1085.2Z" fill="#222742"/>
<path d="M868.334 960.873C868.001 961.2 861 951.36 854 938.892C850.332 932.659 846.999 927.081 844.669 922.817C842.336 918.88 840.669 916.257 840.669 916.257C842.578 918.013 844.258 919.997 845.669 922.162C849.169 927.308 852.504 932.56 855.67 937.91C859.003 943.816 862.335 949.391 865.001 953.985C866.253 956.212 867.366 958.512 868.334 960.873V960.873Z" fill="#222742"/>
<path d="M299.997 1174.44C315.663 1179.69 334.665 1178.37 345.996 1166.56C351.736 1160.56 355.481 1152.99 356.732 1144.84C357.983 1136.69 356.68 1128.36 352.996 1120.96C349.329 1113.75 343.331 1107.18 343.666 1099.3C344.217 1095.05 345.82 1090.99 348.333 1087.49C353.001 1080.6 359.339 1074.69 363.667 1067.81C368 1060.59 370.668 1051.73 367.335 1044.19C360.669 1029.42 337.002 1028.77 330.011 1014.01C326.679 1007.12 328.011 998.915 328.679 991.37C329.346 982.187 329.011 972.672 324.678 964.471C320.346 956.597 310.677 950.691 301.679 952.66C291.013 954.956 285.345 966.767 281.343 976.936C278.675 983.826 276.01 990.386 273.342 997.276C266.009 1015.97 258.676 1036.31 263.676 1056C267.676 1071.74 279.01 1084.54 288.343 1097.99C290.018 1100.61 292.011 1103.24 291.676 1106.52C291.343 1111.11 286.343 1114.39 281.343 1115.38C276.675 1116.36 271.342 1116.36 267.341 1118.99C262.341 1121.94 260.008 1128.17 260.341 1134.08C261.003 1139.84 263.315 1145.3 267.007 1149.82C266.997 1149.5 282.333 1168.53 299.997 1174.44V1174.44Z" fill="#A0CFEF"/>
<path d="M311.331 1096.69C318.987 1086.52 326.997 1076.67 334.665 1066.5C336.816 1063.62 339.155 1060.89 341.665 1058.3" fill="#A0CFEF"/>
<path d="M288.999 1129.82C296.208 1136.64 302.999 1143.87 309.335 1151.48C310.562 1152.75 311.375 1154.35 311.668 1156.08" fill="#A0CFEF"/>
<path d="M290.999 1032.06C297.332 1040.59 304.665 1055.35 311.335 1064.87Z" fill="#A0CFEF"/>
<path d="M408.331 1166.89C426.665 1157.05 445.332 1146.55 458.665 1130.81C461.844 1127.65 464.041 1123.67 464.998 1119.32C465.492 1117.15 465.347 1114.89 464.58 1112.8C463.812 1110.71 462.454 1108.87 460.665 1107.51C457.529 1105.76 453.818 1105.29 450.332 1106.2C442.217 1107.16 434.263 1109.14 426.665 1112.11C437.318 1101.3 445.8 1088.61 451.665 1074.71C453.339 1070.44 454.665 1064.87 450.997 1062.24C449.627 1061.32 447.988 1060.86 446.329 1060.93C426.33 1058.64 408.329 1073.4 395.33 1088.48C400.818 1061.83 402.501 1034.56 400.33 1007.45C399.998 1004.17 399.33 1000.23 395.998 999.249C393.942 998.929 391.836 999.275 389.997 1000.23C374.331 1007.77 363.33 1022.54 356.664 1038.61C349.999 1054.69 347.664 1071.75 345.331 1088.81C340.242 1071.36 332.726 1054.69 322.997 1039.27C322.517 1038.36 321.833 1037.58 320.996 1036.97C319.322 1036.32 317.329 1037.63 315.996 1039.27C303.33 1053.7 301.662 1074.7 304.663 1093.73C308.068 1115.41 316.887 1135.93 330.33 1153.43C335.33 1159.99 342.996 1172.46 358.997 1172.46L408.331 1166.89Z" fill="#1661A5"/>
<path d="M380.999 1041.89C380.614 1043.69 380.054 1045.45 379.324 1047.14C378.324 1050.42 376.656 1055.02 374.991 1060.92C370.295 1076.22 366.511 1091.77 363.658 1107.51C360.812 1123.24 358.92 1139.12 357.992 1155.07C357.66 1161.3 357.325 1166.22 357.325 1169.5C357.347 1171.26 357.235 1173.01 356.992 1174.75C356.749 1173.01 356.638 1171.26 356.66 1169.5V1155.07C357.284 1139 359.066 1123 361.992 1107.17C364.828 1091.38 368.839 1075.81 373.993 1060.59C375.994 1054.68 377.66 1050.09 378.994 1046.81C379.999 1043.54 380.664 1041.58 380.999 1041.89V1041.89Z" fill="#222742"/>
<path d="M418.341 1093.08C417.682 1094.25 416.9 1095.35 416.009 1096.36C414.008 1098.65 411.676 1101.61 409.008 1104.89C403.008 1112.1 395.007 1121.95 386.674 1133.43C378.341 1144.91 371.008 1155.41 365.675 1162.95C363.342 1166.56 361.342 1169.51 359.674 1172.14C359.032 1173.32 358.249 1174.42 357.341 1175.42C357.341 1175.42 358.009 1174.1 359.016 1171.81C360.349 1169.51 362.349 1166.23 364.682 1162.29C369.682 1154.42 376.683 1143.6 385.348 1132.44C394.014 1120.96 402.015 1111.12 408.348 1104.23C411.348 1100.62 414.013 1098 415.681 1096.03C416.408 1094.92 417.306 1093.92 418.341 1093.08V1093.08Z" fill="#222742"/>
<path d="M436.998 1125.88C437.23 1126.16 437.348 1126.51 437.331 1126.87C437.246 1127.82 436.901 1128.72 436.331 1129.49C435.376 1130.64 434.253 1131.63 432.998 1132.45C431.559 1133.69 429.995 1134.79 428.33 1135.73C419.326 1141.89 409.724 1147.17 399.663 1151.47C389.637 1155.66 379.846 1160.37 370.33 1165.58C362.997 1169.52 358.664 1172.47 358.664 1172.47C358.664 1172.47 359.664 1171.48 361.332 1170.17C363.332 1168.86 366 1166.89 369.665 1164.6C376.998 1160.33 387.332 1155.41 398.998 1150.16C408.96 1145.92 418.548 1140.87 427.665 1135.07C429.276 1134.05 430.834 1132.96 432.333 1131.79C433.569 1131.08 434.692 1130.19 435.666 1129.16C437.331 1127.53 436.661 1125.88 436.998 1125.88V1125.88Z" fill="#222742"/>
<path d="M357.332 1169.52C357.332 1169.52 355.999 1169.52 354.664 1167.55C353.329 1165.58 352.331 1162.63 350.664 1159.35C347.664 1152.13 343.331 1142.29 338.998 1131.46C334.665 1120.64 330.665 1110.47 327.992 1103.25C326.659 1099.64 325.659 1096.69 324.659 1094.72C324.094 1093.71 323.753 1092.59 323.659 1091.44C324.273 1092.39 324.832 1093.38 325.334 1094.39C326.716 1097.17 327.941 1100.01 329.002 1102.92C332.002 1110.14 336.335 1119.98 340.668 1130.81C345.001 1141.63 349.001 1151.8 351.673 1159.02C353.006 1162.63 354.006 1165.58 355.006 1167.55C355.997 1168.86 357.332 1169.19 357.332 1169.52V1169.52Z" fill="#222742"/>
<path d="M1481 1081.27L1110.67 1500L874.987 1465.71L1342.67 1099.31L1289.33 1103.58L733.084 1500H419.483L1278.66 1104.89L1221.33 1109.16L253.424 1432.86L23.9995 1370.76L1110.67 1081.27H1481Z" fill="url(#paint0_linear_11_2)"/>
</g>
<defs>
<linearGradient id="paint0_linear_11_2" x1="752.499" y1="1081.27" x2="752.499" y2="1500" gradientUnits="userSpaceOnUse">
<stop stop-color="#FCFCFC"/>
<stop offset="1" stop-color="white" stop-opacity="0"/>
</linearGradient>
<clipPath id="clip0_11_2">
<rect width="1500" height="1500" fill="white"/>
</clipPath>
</defs>
</svg>
